<svg id="svg" version="1.1" xmlns="http://www.w3.org/2000/svg" xmlns:xlink="http://www.w3.org/1999/xlink" width="400" height="299.6078431372549" viewBox="0, 0, 400,299.6078431372549"><g id="svgg"><path id="path0" d="M53.034 131.835 L 53.034 133.034 61.810 133.034 C 71.502 133.034,72.678 133.189,75.864 134.887 C 82.578 138.465,82.201 149.990,75.262 153.283 C 72.630 154.532,71.406 154.675,62.092 154.825 L 53.024 154.971 53.104 162.654 L 53.184 170.337 54.451 170.429 L 55.719 170.521 55.799 163.987 L 55.880 157.453 63.670 157.271 C 73.508 157.042,76.323 156.351,79.549 153.377 C 85.170 148.196,84.576 137.674,78.424 133.454 C 74.863 131.011,72.659 130.637,61.832 130.637 L 53.034 130.637 53.034 131.835 M98.350 150.487 L 98.427 170.337 111.236 170.415 L 124.045 170.493 124.045 169.142 L 124.045 167.790 112.509 167.790 L 100.974 167.790 100.974 149.213 L 100.974 130.637 99.623 130.637 L 98.273 130.637 98.350 150.487 M136.929 131.835 L 136.929 133.034 149.663 133.034 L 162.397 133.034 162.397 131.835 L 162.397 130.637 149.663 130.637 L 136.929 130.637 136.929 131.835 M189.847 134.448 C 188.877 136.554,186.974 140.704,185.618 143.670 C 182.103 151.359,178.262 159.693,175.696 165.198 C 173.086 170.799,173.138 170.487,174.809 170.487 C 176.131 170.487,176.139 170.481,176.940 168.764 C 177.922 166.661,183.944 153.390,187.716 145.019 C 189.238 141.640,191.056 137.663,191.756 136.180 L 193.029 133.483 194.379 136.330 C 195.764 139.250,199.093 146.563,205.150 159.987 C 210.133 171.030,209.821 170.487,211.191 170.487 C 212.801 170.487,212.816 170.396,211.631 167.836 C 210.660 165.739,207.880 159.682,201.642 146.067 C 200.358 143.266,198.242 138.682,196.938 135.880 L 194.569 130.787 193.090 130.703 L 191.610 130.619 189.847 134.448 M225.318 131.790 L 225.318 132.985 235.431 133.095 C 246.502 133.215,246.792 133.257,250.907 135.342 C 261.499 140.710,262.399 157.561,252.466 164.536 C 248.547 167.289,247.005 167.602,236.779 167.725 L 228.015 167.831 228.015 159.271 L 228.015 150.712 226.667 150.712 L 225.318 150.712 225.318 160.599 L 225.318 170.487 232.734 170.487 C 241.659 170.486,245.737 170.143,248.677 169.143 C 266.914 162.940,266.619 137.550,248.240 131.503 C 246.245 130.847,245.633 130.808,235.730 130.704 L 225.318 130.595 225.318 131.790 M277.753 131.835 L 277.753 133.034 290.487 133.034 L 303.221 133.034 303.221 131.835 L 303.221 130.637 290.487 130.637 L 277.753 130.637 277.753 131.835 M316.468 131.610 C 316.871 132.146,319.132 135.213,321.491 138.427 C 323.850 141.640,326.705 145.514,327.834 147.034 L 329.888 149.799 325.490 155.723 C 323.070 158.982,319.699 163.506,317.999 165.778 C 314.453 170.513,314.463 170.487,316.235 170.487 C 317.769 170.487,317.711 170.547,322.429 164.085 C 329.365 154.586,330.752 152.716,331.160 152.307 C 331.541 151.926,332.466 153.038,338.543 161.179 L 345.491 170.487 346.995 170.487 C 348.115 170.487,348.444 170.391,348.283 170.112 C 348.059 169.725,346.564 167.699,338.332 156.622 C 335.665 153.033,333.484 149.932,333.484 149.730 C 333.485 149.528,336.586 145.188,340.375 140.085 C 348.372 129.317,347.611 130.637,345.827 130.637 L 344.389 130.637 338.159 139.026 C 334.733 143.640,331.807 147.416,331.656 147.416 C 331.506 147.416,330.847 146.708,330.193 145.843 C 328.796 143.995,322.573 135.570,320.456 132.659 L 318.986 130.637 317.360 130.637 L 315.734 130.637 316.468 131.610 M136.929 150.112 L 136.929 151.311 149.663 151.311 L 162.397 151.311 162.397 150.112 L 162.397 148.914 149.663 148.914 L 136.929 148.914 136.929 150.112 M277.753 150.112 L 277.753 151.311 290.487 151.311 L 303.221 151.311 303.221 150.112 L 303.221 148.914 290.487 148.914 L 277.753 148.914 277.753 150.112 M136.929 169.139 L 136.929 170.487 149.663 170.487 L 162.397 170.487 162.397 169.139 L 162.397 167.790 149.663 167.790 L 136.929 167.790 136.929 169.139 M277.753 169.139 L 277.753 170.487 290.487 170.487 L 303.221 170.487 303.221 169.139 L 303.221 167.790 290.487 167.790 L 277.753 167.790 277.753 169.139 " stroke="none" fill="#d2b244" fill-rule="evenodd"></path><path id="path1" d="M0.000 149.813 L 0.000 299.625 200.000 299.625 L 400.000 299.625 400.000 149.813 L 400.000 0.000 200.000 0.000 L 0.000 0.000 0.000 149.813 M73.186 130.745 C 87.311 134.711,87.570 152.933,73.558 156.894 C 72.148 157.292,70.098 157.429,64.051 157.528 L 56.341 157.655 56.260 164.146 L 56.180 170.637 54.607 170.727 L 53.034 170.818 53.034 162.738 L 53.034 154.659 62.247 154.538 C 70.755 154.426,71.614 154.366,73.467 153.756 C 82.223 150.870,83.073 138.763,74.806 134.677 C 72.044 133.312,69.665 133.046,60.150 133.039 L 53.034 133.034 53.034 131.501 L 53.034 129.969 62.247 130.115 C 69.475 130.229,71.832 130.365,73.186 130.745 M101.273 148.910 L 101.273 167.783 112.884 167.862 L 124.494 167.940 124.594 168.645 C 124.649 169.032,124.612 169.674,124.513 170.071 L 124.332 170.793 111.229 170.715 L 98.127 170.637 98.050 150.712 C 97.961 128.043,97.796 130.037,99.766 130.037 L 101.273 130.037 101.273 148.910 M162.814 130.511 C 162.914 130.772,162.996 131.446,162.996 132.010 L 162.996 133.034 149.663 133.034 L 136.330 133.034 136.330 131.735 C 136.330 131.021,136.419 130.347,136.529 130.237 C 137.017 129.750,162.625 130.017,162.814 130.511 M194.693 130.412 C 194.863 130.618,196.176 133.416,197.610 136.629 C 199.045 139.843,200.561 143.146,200.979 143.970 C 201.397 144.794,203.053 148.367,204.660 151.910 C 206.267 155.453,208.808 161.021,210.307 164.282 C 213.536 171.305,213.460 170.839,211.360 170.727 L 209.687 170.637 207.580 165.993 C 206.421 163.438,204.224 158.584,202.699 155.206 C 201.173 151.828,199.291 147.715,198.516 146.067 C 197.742 144.419,196.223 141.049,195.141 138.577 C 194.059 136.105,193.148 134.049,193.117 134.008 C 193.085 133.966,192.008 136.259,190.724 139.101 C 189.439 141.944,186.707 147.978,184.653 152.509 C 182.598 157.041,179.901 163.007,178.659 165.768 L 176.401 170.787 174.792 170.787 C 173.829 170.787,173.184 170.655,173.184 170.459 C 173.184 170.102,177.291 160.773,178.514 158.352 C 178.930 157.528,180.747 153.618,182.551 149.663 C 184.355 145.708,186.968 139.980,188.358 136.933 C 191.593 129.842,191.459 130.037,193.079 130.037 C 193.796 130.037,194.523 130.206,194.693 130.412 M243.853 130.343 C 268.517 132.941,268.615 167.695,243.967 170.484 C 242.313 170.671,237.543 170.776,232.959 170.726 L 224.869 170.637 224.785 161.049 C 224.684 149.518,224.592 150.112,226.491 150.112 C 228.406 150.112,228.315 149.641,228.315 159.465 L 228.315 167.869 236.330 167.711 C 247.497 167.491,250.075 166.735,254.405 162.415 C 262.354 154.484,260.065 140.039,250.113 135.325 C 245.889 133.323,245.392 133.253,234.532 133.109 L 224.719 132.978 224.719 131.982 C 224.719 129.929,224.255 130.037,233.066 130.043 C 237.456 130.046,242.310 130.181,243.853 130.343 M303.762 131.610 L 303.853 133.034 290.503 133.034 L 277.154 133.034 277.154 131.895 C 277.154 129.952,276.605 130.023,290.775 130.109 L 303.670 130.187 303.762 131.610 M321.874 134.165 C 323.562 136.434,326.419 140.280,328.222 142.710 C 330.025 145.140,331.602 147.092,331.726 147.047 C 331.925 146.976,334.956 142.925,341.515 133.966 C 344.452 129.954,344.355 130.037,346.065 130.037 C 347.902 130.037,347.943 130.289,346.442 132.332 C 342.889 137.167,338.417 143.213,336.151 146.247 L 333.554 149.723 334.734 151.270 C 335.383 152.121,337.086 154.411,338.519 156.359 C 344.333 164.265,345.093 165.294,346.891 167.688 C 349.181 170.737,349.183 170.787,347.040 170.787 L 345.316 170.787 338.433 161.506 C 334.647 156.402,331.469 152.323,331.371 152.442 C 331.274 152.562,329.799 154.547,328.095 156.854 C 326.391 159.161,323.693 162.801,322.098 164.944 C 320.504 167.086,318.898 169.277,318.530 169.813 C 317.903 170.727,317.753 170.787,316.084 170.787 C 313.600 170.787,312.764 172.230,323.615 157.787 C 328.029 151.912,329.288 150.135,329.288 149.781 C 329.288 149.446,329.277 149.430,324.899 143.521 C 313.929 128.713,314.693 130.037,317.120 130.037 L 318.804 130.037 321.874 134.165 M162.846 150.112 L 162.846 151.461 149.663 151.461 L 136.479 151.461 136.383 150.458 C 136.194 148.484,135.317 148.600,149.730 148.686 L 162.846 148.764 162.846 150.112 M303.670 150.112 L 303.670 151.461 290.568 151.539 L 277.466 151.617 277.277 150.865 C 277.174 150.451,277.174 149.774,277.277 149.360 L 277.466 148.608 290.568 148.686 L 303.670 148.764 303.670 150.112 M162.946 168.645 C 163.001 169.032,162.964 169.674,162.865 170.071 L 162.684 170.793 149.582 170.715 L 136.479 170.637 136.388 169.210 L 136.296 167.784 149.571 167.862 L 162.846 167.940 162.946 168.645 M303.762 169.213 L 303.670 170.637 290.656 170.715 C 276.544 170.800,277.167 170.874,277.158 169.114 C 277.151 167.737,276.610 167.790,290.703 167.790 L 303.853 167.790 303.762 169.213 " stroke="none" fill="#445484" fill-rule="evenodd"></path><path id="path2" d="M57.154 130.561 C 59.502 130.612,63.345 130.612,65.693 130.561 C 68.041 130.510,66.120 130.469,61.423 130.469 C 56.727 130.469,54.805 130.510,57.154 130.561 M99.548 130.548 L 100.969 130.669 101.050 149.230 L 101.130 167.790 101.127 149.139 L 101.124 130.487 99.625 130.456 L 98.127 130.426 99.548 130.548 M136.682 131.757 L 136.734 133.184 136.849 131.910 L 136.963 130.637 149.663 130.637 L 162.363 130.637 162.488 131.910 L 162.613 133.184 162.580 131.835 L 162.547 130.487 149.588 130.409 L 136.629 130.331 136.682 131.757 M191.760 130.506 C 192.811 130.738,194.695 130.779,194.564 130.567 C 194.486 130.441,193.722 130.353,192.866 130.372 C 192.011 130.391,191.513 130.451,191.760 130.506 M225.071 131.760 L 225.123 133.184 225.238 131.914 L 225.352 130.645 234.549 130.562 L 243.745 130.478 234.382 130.407 L 225.019 130.337 225.071 131.760 M277.572 130.758 C 277.484 130.989,277.466 131.630,277.534 132.181 C 277.645 133.085,277.662 133.059,277.705 131.910 L 277.753 130.637 290.470 130.637 L 303.187 130.637 303.301 131.910 L 303.416 133.184 303.468 131.760 L 303.521 130.337 290.627 130.337 C 279.831 130.337,277.708 130.406,277.572 130.758 M316.330 130.554 C 316.865 130.620,317.742 130.620,318.277 130.554 C 318.813 130.487,318.375 130.433,317.303 130.433 C 316.232 130.433,315.794 130.487,316.330 130.554 M344.166 130.562 C 344.090 130.685,344.655 130.746,345.422 130.697 C 347.610 130.557,347.875 130.410,346.010 130.372 C 345.072 130.353,344.243 130.438,344.166 130.562 M188.813 136.193 C 188.311 137.294,188.406 137.529,188.949 136.528 C 189.203 136.060,189.354 135.621,189.286 135.553 C 189.217 135.484,189.004 135.772,188.813 136.193 M256.629 136.629 C 257.273 137.288,257.867 137.828,257.949 137.828 C 258.032 137.828,257.573 137.288,256.929 136.629 C 256.285 135.970,255.691 135.431,255.609 135.431 C 255.526 135.431,255.986 135.970,256.629 136.629 M83.371 142.472 C 83.375 143.131,83.436 143.365,83.508 142.993 C 83.579 142.620,83.577 142.081,83.502 141.794 C 83.427 141.508,83.368 141.813,83.371 142.472 M83.377 145.318 C 83.377 146.060,83.436 146.363,83.507 145.993 C 83.579 145.622,83.579 145.015,83.507 144.644 C 83.436 144.273,83.377 144.577,83.377 145.318 M136.750 149.032 C 136.660 149.265,136.642 149.907,136.710 150.458 C 136.821 151.362,136.838 151.336,136.881 150.187 L 136.929 148.914 149.646 148.914 L 162.363 148.914 162.480 150.037 L 162.598 151.161 162.572 149.963 L 162.547 148.764 149.730 148.686 C 138.901 148.620,136.887 148.674,136.750 149.032 M277.574 149.032 C 277.484 149.265,277.466 149.907,277.534 150.458 C 277.645 151.362,277.662 151.336,277.705 150.187 L 277.753 148.914 290.470 148.914 L 303.187 148.914 303.304 150.037 L 303.422 151.161 303.396 149.963 L 303.371 148.764 290.554 148.686 C 279.725 148.620,277.711 148.674,277.574 149.032 M77.734 151.386 L 76.854 152.360 77.828 151.480 C 78.735 150.659,78.939 150.412,78.708 150.412 C 78.656 150.412,78.218 150.850,77.734 151.386 M225.089 160.524 L 225.160 170.637 225.243 160.690 L 225.326 150.744 226.746 150.632 L 228.165 150.520 226.592 150.466 L 225.019 150.412 225.089 160.524 M57.022 154.831 C 59.297 154.882,62.938 154.882,65.112 154.831 C 67.285 154.779,65.423 154.738,60.974 154.738 C 56.524 154.738,54.746 154.780,57.022 154.831 M55.864 157.686 C 55.784 157.896,55.755 160.896,55.800 164.352 L 55.881 170.637 56.031 163.970 C 56.177 157.440,56.163 156.909,55.864 157.686 M124.131 169.139 C 124.133 169.963,124.191 170.264,124.260 169.809 C 124.329 169.353,124.327 168.679,124.256 168.310 C 124.185 167.942,124.128 168.315,124.131 169.139 M136.715 169.139 C 136.717 169.963,136.775 170.264,136.844 169.809 C 136.913 169.353,136.911 168.679,136.840 168.310 C 136.769 167.942,136.713 168.315,136.715 169.139 M162.483 169.139 C 162.485 169.963,162.543 170.264,162.612 169.809 C 162.681 169.353,162.679 168.679,162.608 168.310 C 162.537 167.942,162.480 168.315,162.483 169.139 M277.539 169.139 C 277.541 169.963,277.599 170.264,277.668 169.809 C 277.737 169.353,277.735 168.679,277.664 168.310 C 277.593 167.942,277.537 168.315,277.539 169.139 M303.307 169.139 C 303.309 169.963,303.367 170.264,303.436 169.809 C 303.505 169.353,303.503 168.679,303.432 168.310 C 303.361 167.942,303.304 168.315,303.307 169.139 M176.828 168.852 C 176.326 169.954,176.421 170.189,176.964 169.187 C 177.218 168.719,177.369 168.280,177.301 168.212 C 177.232 168.143,177.019 168.431,176.828 168.852 M242.172 170.402 C 242.625 170.471,243.367 170.471,243.820 170.402 C 244.273 170.333,243.903 170.277,242.996 170.277 C 242.090 170.277,241.719 170.333,242.172 170.402 " stroke="none" fill="#8b8464" fill-rule="evenodd"></path><path id="path3" d="M253.483 137.322 C 253.483 137.374,253.921 137.812,254.457 138.296 L 255.431 139.176 254.551 138.202 C 253.730 137.295,253.483 137.091,253.483 137.322 M262.248 150.562 C 262.251 151.221,262.313 151.455,262.384 151.083 C 262.456 150.710,262.453 150.171,262.378 149.884 C 262.303 149.598,262.245 149.903,262.248 150.562 M143.316 151.535 C 146.912 151.583,152.709 151.583,156.200 151.535 C 159.691 151.487,156.749 151.448,149.663 151.448 C 142.577 151.448,139.721 151.487,143.316 151.535 M284.140 151.535 C 287.736 151.583,293.533 151.583,297.024 151.535 C 300.515 151.487,297.573 151.448,290.487 151.448 C 283.401 151.448,280.545 151.487,284.140 151.535 M59.384 157.527 C 61.147 157.580,64.113 157.580,65.976 157.527 C 67.839 157.475,66.397 157.431,62.772 157.431 C 59.146 157.431,57.622 157.474,59.384 157.527 M346.966 170.487 L 345.318 170.689 346.874 170.738 C 347.729 170.765,348.512 170.652,348.614 170.487 C 348.716 170.322,348.758 170.209,348.707 170.236 C 348.656 170.263,347.873 170.376,346.966 170.487 M54.161 170.699 C 54.534 170.770,55.073 170.768,55.359 170.693 C 55.646 170.618,55.341 170.559,54.682 170.562 C 54.022 170.566,53.788 170.627,54.161 170.699 M104.964 170.711 C 108.560 170.759,114.357 170.759,117.848 170.711 C 121.339 170.663,118.397 170.624,111.311 170.624 C 104.225 170.624,101.369 170.664,104.964 170.711 M143.316 170.711 C 146.912 170.759,152.709 170.759,156.200 170.711 C 159.691 170.663,156.749 170.624,149.663 170.624 C 142.577 170.624,139.721 170.664,143.316 170.711 M174.161 170.702 C 174.617 170.771,175.291 170.769,175.660 170.698 C 176.028 170.627,175.655 170.570,174.831 170.573 C 174.007 170.575,173.706 170.633,174.161 170.702 M210.562 170.698 C 210.933 170.770,211.539 170.770,211.910 170.698 C 212.281 170.627,211.978 170.568,211.236 170.568 C 210.494 170.568,210.191 170.627,210.562 170.698 M229.139 170.711 C 231.322 170.762,234.895 170.762,237.079 170.711 C 239.262 170.660,237.476 170.618,233.109 170.618 C 228.742 170.618,226.955 170.660,229.139 170.711 M284.140 170.711 C 287.736 170.759,293.533 170.759,297.024 170.711 C 300.515 170.663,297.573 170.624,290.487 170.624 C 283.401 170.624,280.545 170.664,284.140 170.711 M315.431 170.698 C 315.801 170.770,316.408 170.770,316.779 170.698 C 317.150 170.627,316.846 170.568,316.105 170.568 C 315.363 170.568,315.060 170.627,315.431 170.698 " stroke="none" fill="#7b796c" fill-rule="evenodd"></path><path id="path4" d="M57.022 130.262 C 59.297 130.313,62.938 130.312,65.112 130.261 C 67.285 130.210,65.423 130.168,60.974 130.169 C 56.524 130.169,54.746 130.211,57.022 130.262 M98.177 130.237 C 97.900 130.515,97.925 170.419,98.202 170.590 C 98.326 170.667,98.391 161.648,98.348 150.549 L 98.269 130.369 99.846 130.258 L 101.423 130.148 99.900 130.093 C 99.062 130.062,98.287 130.127,98.177 130.237 M136.450 130.455 C 136.362 130.685,136.343 131.393,136.409 132.028 C 136.523 133.128,136.531 133.115,136.579 131.763 L 136.629 130.343 149.738 130.262 L 162.846 130.181 149.728 130.109 C 138.736 130.049,136.584 130.105,136.450 130.455 M192.439 130.252 C 192.894 130.321,193.568 130.319,193.937 130.248 C 194.305 130.177,193.933 130.121,193.109 130.123 C 192.285 130.125,191.983 130.184,192.439 130.252 M229.307 130.262 C 231.748 130.312,235.658 130.312,237.996 130.261 C 240.334 130.211,238.337 130.170,233.558 130.170 C 228.779 130.170,226.866 130.211,229.307 130.262 M290.546 130.260 L 303.488 130.343 303.607 131.690 L 303.726 133.038 303.698 131.612 L 303.670 130.187 290.637 130.182 L 277.603 130.177 290.546 130.260 M316.335 130.255 C 316.873 130.321,317.682 130.320,318.133 130.252 C 318.583 130.183,318.142 130.129,317.154 130.130 C 316.165 130.132,315.796 130.188,316.335 130.255 M345.243 130.252 C 345.697 130.321,346.438 130.321,346.891 130.252 C 347.345 130.183,346.974 130.127,346.067 130.127 C 345.161 130.127,344.790 130.183,345.243 130.252 M162.778 131.835 C 162.778 132.577,162.837 132.880,162.908 132.509 C 162.980 132.139,162.980 131.532,162.908 131.161 C 162.837 130.790,162.778 131.094,162.778 131.835 M224.801 131.835 C 224.801 132.577,224.859 132.880,224.931 132.509 C 225.002 132.139,225.002 131.532,224.931 131.161 C 224.859 130.790,224.801 131.094,224.801 131.835 M277.235 131.835 C 277.235 132.577,277.294 132.880,277.365 132.509 C 277.436 132.139,277.436 131.532,277.365 131.161 C 277.294 130.790,277.235 131.094,277.235 131.835 M256.779 136.479 C 257.338 137.056,257.863 137.528,257.945 137.528 C 258.028 137.528,257.638 137.056,257.079 136.479 C 256.520 135.903,255.995 135.431,255.912 135.431 C 255.830 135.431,256.220 135.903,256.779 136.479 M83.688 143.970 C 83.690 144.959,83.746 145.327,83.813 144.789 C 83.879 144.250,83.878 143.441,83.810 142.991 C 83.741 142.541,83.687 142.981,83.688 143.970 M262.248 148.464 C 262.251 149.124,262.313 149.358,262.384 148.985 C 262.456 148.613,262.453 148.073,262.378 147.787 C 262.303 147.500,262.245 147.805,262.248 148.464 M162.547 150.112 C 162.547 150.905,162.648 151.491,162.772 151.414 C 162.895 151.338,162.996 150.752,162.996 150.112 C 162.996 149.473,162.895 148.887,162.772 148.810 C 162.648 148.734,162.547 149.320,162.547 150.112 M136.353 150.020 C 136.340 150.710,136.436 151.341,136.567 151.422 C 136.697 151.503,136.755 151.072,136.695 150.466 C 136.531 148.808,136.380 148.610,136.353 150.020 M303.513 150.173 C 303.434 150.948,303.479 151.472,303.615 151.336 C 303.750 151.201,303.815 150.567,303.759 149.927 L 303.658 148.764 303.513 150.173 M277.223 150.112 C 277.223 150.689,277.285 150.925,277.360 150.637 C 277.435 150.348,277.435 149.876,277.360 149.588 C 277.285 149.300,277.223 149.536,277.223 150.112 M77.587 151.236 L 76.554 152.360 77.678 151.327 C 78.724 150.366,78.939 150.112,78.710 150.112 C 78.660 150.112,78.155 150.618,77.587 151.236 M225.693 150.327 C 226.146 150.396,226.888 150.396,227.341 150.327 C 227.794 150.258,227.423 150.202,226.517 150.202 C 225.610 150.202,225.240 150.258,225.693 150.327 M224.784 160.507 C 224.748 165.976,224.820 170.514,224.944 170.591 C 225.067 170.667,225.134 167.743,225.092 164.092 C 224.950 151.713,224.848 150.530,224.784 160.507 M228.147 159.251 C 228.147 164.030,228.189 165.943,228.239 163.502 C 228.290 161.061,228.289 157.151,228.239 154.813 C 228.188 152.475,228.147 154.472,228.147 159.251 M262.242 152.509 C 262.242 153.086,262.303 153.322,262.379 153.034 C 262.454 152.745,262.454 152.273,262.379 151.985 C 262.303 151.697,262.242 151.933,262.242 152.509 M56.029 164.105 C 55.947 167.764,55.984 170.654,56.111 170.526 C 56.238 170.399,56.305 167.406,56.260 163.874 L 56.179 157.453 56.029 164.105 M254.213 162.772 L 253.333 163.745 254.307 162.865 C 254.843 162.381,255.281 161.943,255.281 161.892 C 255.281 161.660,255.034 161.864,254.213 162.772 M136.364 169.046 C 136.345 169.819,136.436 170.517,136.567 170.598 C 136.697 170.679,136.757 170.248,136.699 169.642 C 136.524 167.789,136.401 167.571,136.364 169.046 M303.515 169.199 C 303.436 170.056,303.481 170.648,303.615 170.513 C 303.749 170.379,303.814 169.677,303.759 168.955 L 303.659 167.640 303.515 169.199 M124.420 169.139 C 124.423 169.798,124.485 170.032,124.556 169.659 C 124.628 169.287,124.625 168.747,124.550 168.461 C 124.475 168.174,124.417 168.479,124.420 169.139 M162.772 169.139 C 162.776 169.798,162.837 170.032,162.909 169.659 C 162.980 169.287,162.977 168.747,162.902 168.461 C 162.828 168.174,162.769 168.479,162.772 169.139 M277.229 169.139 C 277.232 169.798,277.294 170.032,277.365 169.659 C 277.437 169.287,277.434 168.747,277.359 168.461 C 277.284 168.174,277.226 168.479,277.229 169.139 M241.273 170.693 C 241.562 170.769,242.034 170.769,242.322 170.693 C 242.610 170.618,242.375 170.556,241.798 170.556 C 241.221 170.556,240.985 170.618,241.273 170.693 " stroke="none" fill="#636b74" fill-rule="evenodd"></path></g></svg>